# xmcd CD database file
#
# Track frame offsets:
#	150
#	25245
#	37047
#	48147
#	71539
#	85593
#	98635
#	116992
#	136277
#	148407
#	165477
#	176681
#	190445
#	205269
#	224966
#	235266
#	251163
#	270457
#
# Disc length: 3817 seconds
#
# Revision: 2
# Processed by: cddbd v1.4b41PL1 Copyright (c) Steve Scherf et al.
# Submitted via: Feurio! 1.52 - http://www.feurio.com
#
DISCID=130ee712
DTITLE=Various Artist - Blues Ballads 1
DYEAR=1900
DGENRE=
TTITLE0=Turner, Ike and Tina - All I Can Do Is Cry
TTITLE1=Williams, Big Joe - Sloopy Drunk Blues
TTITLE2=Hooker, John Lee - Send Me The Pillow You Dream On
TTITLE3=Hurt, Mississippi John - The Angels Laid Him Away
TTITLE4=Lightning Slim - Good Morning Heartaches
TTITLE5=James, Elmore - Held My Baby Last Night
TTITLE6=McGhee, Brownie - Terry, Sonny - I'm A Stranger Here
TTITLE7=Bloomfield, Mike - Eysight To The Blind
TTITLE8=Lightnin' Hopkins - Don't Think Cause You're Pretty
TTITLE9=Winter, Johnny - Kind Hearted Woman
TTITLE10=Canned Heat - Can't Hold On
TTITLE11=Charles, Ray - I'm Gonna Drown Myself
TTITLE12=Mayall, John - Why Worry
TTITLE13=Burdon, Eric and The Animals - Gotta Find My Baby
TTITLE14=Watson, Johnny Guitar - Blues Side
TTITLE15=Fleetwood Mac - My Baby's Sweet
TTITLE16=Morton, Jelly Roll - Dead Man Blues
TTITLE17=King, B. B. - Walkin' And Cryin'
EXTD=
EXTT0=
EXTT1=
EXTT2=
EXTT3=
EXTT4=
EXTT5=
EXTT6=
EXTT7=
EXTT8=
EXTT9=
EXTT10=
EXTT11=
EXTT12=
EXTT13=
EXTT14=
EXTT15=
EXTT16=
EXTT17=
PLAYORDER=
